# Blender 3.4.0
# www.blender.org
mtllib roofs.mtl
o roofs
v 0.357356 0.581565 1.785899
v 0.361366 0.581620 1.821272
v 0.354250 0.581664 1.856152
v 0.336703 0.581693 1.887126
v 0.310443 0.581702 1.911161
v 0.278041 0.581693 1.925906
v 0.242669 0.581664 1.929917
v 0.207789 0.581620 1.922800
v 0.176815 0.581565 1.905253
v 0.152779 0.581504 1.878994
v 0.138034 0.581442 1.846592
v 0.134024 0.581387 1.811220
v 0.141141 0.581343 1.776340
v 0.158688 0.581315 1.745366
v 0.184947 0.581305 1.721330
v 0.217349 0.581315 1.706585
v 0.252721 0.581343 1.702575
v 0.287601 0.581387 1.709691
v 0.318575 0.581442 1.727238
v 0.342611 0.581504 1.753498
v 0.247530 0.752909 1.815996
v 1.335449 0.581565 1.139290
v 1.339459 0.581620 1.174663
v 1.332343 0.581664 1.209543
v 1.314796 0.581693 1.240517
v 1.288536 0.581702 1.264553
v 1.256135 0.581693 1.279297
v 1.220762 0.581664 1.283308
v 1.185882 0.581620 1.276191
v 1.154908 0.581565 1.258644
v 1.130872 0.581504 1.232385
v 1.116128 0.581442 1.199983
v 1.112117 0.581387 1.164611
v 1.119234 0.581343 1.129731
v 1.136781 0.581315 1.098757
v 1.163040 0.581305 1.074721
v 1.195442 0.581315 1.059976
v 1.230814 0.581343 1.055966
v 1.265695 0.581387 1.063082
v 1.296669 0.581442 1.080629
v 1.320704 0.581504 1.106889
v 1.225623 0.752909 1.169387
v 1.659239 0.821540 1.565373
v 1.664549 0.821613 1.612206
v 1.655126 0.821671 1.658388
v 1.631894 0.821709 1.699397
v 1.597127 0.821722 1.731220
v 1.554227 0.821709 1.750742
v 1.507394 0.821671 1.756052
v 1.461212 0.821613 1.746630
v 1.420203 0.821540 1.723398
v 1.388380 0.821459 1.688630
v 1.368858 0.821378 1.645730
v 1.363548 0.821304 1.598898
v 1.372970 0.821246 1.552716
v 1.396202 0.821209 1.511707
v 1.430970 0.821196 1.479884
v 1.473870 0.821209 1.460361
v 1.520703 0.821246 1.455052
v 1.566884 0.821304 1.464474
v 1.607894 0.821378 1.487706
v 1.639717 0.821459 1.522473
v 1.513811 1.068110 1.605193
v 0.681090 0.821540 2.212019
v 0.686400 0.821613 2.258852
v 0.676977 0.821671 2.305033
v 0.653745 0.821709 2.346043
v 0.618978 0.821722 2.377866
v 0.576078 0.821709 2.397388
v 0.529245 0.821671 2.402698
v 0.483063 0.821613 2.393276
v 0.442054 0.821540 2.370044
v 0.410231 0.821459 2.335276
v 0.390709 0.821378 2.292376
v 0.385399 0.821304 2.245543
v 0.394821 0.821246 2.199362
v 0.418053 0.821209 2.158352
v 0.452821 0.821196 2.126529
v 0.495721 0.821209 2.107007
v 0.542554 0.821246 2.101697
v 0.588735 0.821304 2.111120
v 0.629745 0.821378 2.134352
v 0.661568 0.821459 2.169119
v 0.535662 1.068110 2.251839
v 0.639329 -0.272691 -0.455401
v 2.027631 -0.268297 1.644615
v -0.096290 -0.272691 0.030911
v 1.292011 -0.268297 2.130926
vn 0.8024 0.5535 -0.2230
vn 0.8318 0.5539 0.0360
vn -0.0010 1.0000 -0.0015
vn 0.7797 0.5542 0.2914
vn 0.6512 0.5544 0.5182
vn 0.4589 0.5545 0.6942
vn 0.2217 0.5544 0.8022
vn -0.0373 0.5542 0.8315
vn -0.2927 0.5539 0.7794
vn -0.5195 0.5535 0.6509
vn -0.6955 0.5531 0.4587
vn -0.8035 0.5526 0.2214
vn -0.8329 0.5522 -0.0376
vn -0.7808 0.5519 -0.2930
vn -0.6523 0.5517 -0.5198
vn -0.4600 0.5516 -0.6958
vn -0.2227 0.5517 -0.8038
vn 0.0363 0.5519 -0.8331
vn 0.2917 0.5522 -0.7810
vn 0.5185 0.5526 -0.6525
vn 0.6945 0.5531 -0.4603
vn 0.8220 0.5217 -0.2284
vn 0.8521 0.5221 0.0369
vn 0.7987 0.5224 0.2986
vn 0.6671 0.5227 0.5309
vn 0.4701 0.5227 0.7111
vn 0.2271 0.5227 0.8217
vn -0.0382 0.5224 0.8518
vn -0.2998 0.5221 0.7984
vn -0.5321 0.5217 0.6668
vn -0.7124 0.5212 0.4699
vn -0.8230 0.5208 0.2269
vn -0.8531 0.5204 -0.0385
vn -0.7997 0.5200 -0.3001
vn -0.6681 0.5198 -0.5324
vn -0.4711 0.5197 -0.7127
vn -0.2281 0.5198 -0.8233
vn 0.0372 0.5200 -0.8533
vn 0.2988 0.5204 -0.8000
vn 0.5311 0.5208 -0.6684
vn 0.7114 0.5212 -0.4714
vt 0.481178 0.790597
vt 0.202030 5.103473
vt 0.466744 0.818924
vt 0.444264 0.841406
vt 0.415936 0.855839
vt 0.384534 0.860813
vt 0.353133 0.855839
vt 0.324806 0.841406
vt 0.302325 0.818924
vt 0.287892 0.790597
vt 0.282918 0.759196
vt 0.287892 0.727795
vt -2.867195 4.106228
vt -2.638011 3.656402
vt -2.281031 3.299438
vt -1.831221 3.070237
vt -1.332598 2.991270
vt -0.833960 3.070237
vt -0.384135 3.299438
vt -0.027170 3.656402
vt 0.202030 4.106228
vt 0.280997 4.604850
vt 0.384534 0.759196
vt -1.332598 4.604850
vt 0.481032 0.790534
vt 0.199712 5.102472
vt 0.466621 0.818817
vt 0.444176 0.841263
vt 0.415893 0.855673
vt 0.384542 0.860639
vt 0.353190 0.855673
vt 0.324908 0.841263
vt 0.302463 0.818817
vt 0.288052 0.790534
vt 0.283087 0.759184
vt 0.288052 0.727832
vt -2.864655 4.106815
vt -2.635820 3.657719
vt -2.279412 3.301311
vt -1.830316 3.072476
vt -1.332472 2.993636
vt -0.834643 3.072476
vt -0.385532 3.301311
vt -0.029123 3.657719
vt 0.199712 4.106815
vt 0.278552 4.604659
vt 0.384542 0.759184
vt -1.332472 4.604659
vt 0.481032 0.790534
vt 0.466621 0.818817
vt 0.444176 0.841263
vt 0.415893 0.855673
vt 0.384542 0.860639
vt 0.353190 0.855673
vt 0.324908 0.841263
vt 0.302463 0.818817
vt 0.288052 0.790534
vt 0.283087 0.759184
vt 0.288052 0.727832
vt -2.864655 4.106815
vt -2.635820 3.657719
vt -2.279412 3.301311
vt -1.830316 3.072476
vt -1.332472 2.993636
vt -0.834643 3.072476
vt -0.385532 3.301311
vt -0.029123 3.657719
vt 0.199712 4.106815
vt 0.278552 4.604659
vt 0.485997 0.759184
vt -1.332472 4.604659
vt 0.384542 0.759184
vt 0.481032 0.790534
vt 0.199712 5.102472
vt 0.466621 0.818817
vt 0.444176 0.841263
vt 0.415893 0.855673
vt 0.384542 0.860639
vt 0.353190 0.855673
vt 0.324908 0.841263
vt 0.302463 0.818817
vt 0.288052 0.790534
vt 0.283087 0.759184
vt 0.288052 0.727832
vt -2.864655 4.106815
vt -2.635820 3.657719
vt -2.279412 3.301311
vt -1.830316 3.072476
vt -1.332472 2.993636
vt -0.834643 3.072476
vt -0.385532 3.301311
vt -0.029123 3.657719
vt 0.199712 4.106815
vt 0.278552 4.604659
vt 0.384542 0.759184
vt -1.332472 4.604659
vt 3.268159 -7.197979
vt 3.268159 6.361739
vt -1.499045 -7.197979
vt -1.499045 6.361739
s 1
usemtl Material.006
f 1/1/1 21/23/3 2/3/2
f 2/3/2 21/23/3 3/4/4
f 3/4/4 21/23/3 4/5/5
f 4/5/5 21/23/3 5/6/6
f 5/6/6 21/23/3 6/7/7
f 6/7/7 21/23/3 7/8/8
f 7/8/8 21/23/3 8/9/9
f 8/9/9 21/23/3 9/10/10
f 9/10/10 21/23/3 10/11/11
f 10/11/11 21/23/3 11/12/12
f 11/13/12 21/24/3 12/14/13
f 12/14/13 21/24/3 13/15/14
f 13/15/14 21/24/3 14/16/15
f 14/16/15 21/24/3 15/17/16
f 15/17/16 21/24/3 16/18/17
f 16/18/17 21/24/3 17/19/18
f 17/19/18 21/24/3 18/20/19
f 18/20/19 21/24/3 19/21/20
f 19/21/20 21/24/3 20/22/21
f 20/22/21 21/24/3 1/2/1
f 22/25/1 42/47/3 23/27/2
f 23/27/2 42/47/3 24/28/4
f 24/28/4 42/47/3 25/29/5
f 25/29/5 42/47/3 26/30/6
f 26/30/6 42/47/3 27/31/7
f 27/31/7 42/47/3 28/32/8
f 28/32/8 42/47/3 29/33/9
f 29/33/9 42/47/3 30/34/10
f 30/34/10 42/47/3 31/35/11
f 31/35/11 42/47/3 32/36/12
f 32/37/12 42/48/3 33/38/13
f 33/38/13 42/48/3 34/39/14
f 34/39/14 42/48/3 35/40/15
f 35/40/15 42/48/3 36/41/16
f 36/41/16 42/48/3 37/42/17
f 37/42/17 42/48/3 38/43/18
f 38/43/18 42/48/3 39/44/19
f 39/44/19 42/48/3 40/45/20
f 40/45/20 42/48/3 41/46/21
f 41/46/21 42/48/3 22/26/1
f 43/49/22 63/72/3 44/50/23
f 44/50/23 63/72/3 45/51/24
f 45/51/24 63/72/3 46/52/25
f 46/52/25 63/72/3 47/53/26
f 47/53/26 63/72/3 48/54/27
f 48/54/27 63/72/3 49/55/28
f 49/55/28 63/72/3 50/56/29
f 50/56/29 63/72/3 51/57/30
f 51/57/30 63/72/3 52/58/31
f 52/58/31 63/72/3 53/59/32
f 53/60/32 63/71/3 54/61/33
f 54/61/33 63/71/3 55/62/34
f 55/62/34 63/71/3 56/63/35
f 56/63/35 63/71/3 57/64/36
f 57/64/36 63/71/3 58/65/37
f 58/65/37 63/71/3 59/66/38
f 59/66/38 63/71/3 60/67/39
f 60/67/39 63/71/3 61/68/40
f 61/68/40 63/71/3 62/69/41
f 62/70/41 63/72/3 43/49/22
f 64/73/22 84/95/3 65/75/23
f 65/75/23 84/95/3 66/76/24
f 66/76/24 84/95/3 67/77/25
f 67/77/25 84/95/3 68/78/26
f 68/78/26 84/95/3 69/79/27
f 69/79/27 84/95/3 70/80/28
f 70/80/28 84/95/3 71/81/29
f 71/81/29 84/95/3 72/82/30
f 72/82/30 84/95/3 73/83/31
f 73/83/31 84/95/3 74/84/32
f 74/85/32 84/96/3 75/86/33
f 75/86/33 84/96/3 76/87/34
f 76/87/34 84/96/3 77/88/35
f 77/88/35 84/96/3 78/89/36
f 78/89/36 84/96/3 79/90/37
f 79/90/37 84/96/3 80/91/38
f 80/91/38 84/96/3 81/92/39
f 81/92/39 84/96/3 82/93/40
f 82/93/40 84/96/3 83/94/41
f 83/94/41 84/96/3 64/74/22
f 87/99/3 88/100/3 86/98/3 85/97/3
