# Blender 3.4.0
# www.blender.org
mtllib table.mtl
o Cube
v -0.345993 -0.233632 -0.160454
v -0.345993 -0.268380 -0.160454
v -1.137120 -0.233632 -0.968786
v -1.137120 -0.268380 -0.968786
v 0.462339 -0.233632 -0.951581
v 0.462339 -0.268380 -0.951581
v -0.328788 -0.233632 -1.759913
v -0.328788 -0.268380 -1.759913
vn -0.7147 -0.0000 0.6995
vn -0.6995 -0.0000 -0.7147
vn 0.7147 -0.0000 -0.6995
vn 0.6995 -0.0000 0.7147
vn -0.0000 1.0000 -0.0000
vn -0.0000 -1.0000 -0.0000
vt 0.375000 0.000000
vt 0.375000 1.000000
vt 0.125000 0.750000
vt 0.625000 0.000000
vt 0.625000 1.000000
vt 0.875000 0.750000
vt 0.375000 0.250000
vt 0.125000 0.500000
vt 0.625000 0.250000
vt 0.875000 0.500000
vt 0.375000 0.750000
vt 0.625000 0.750000
vt 0.375000 0.500000
vt 0.625000 0.500000
s 0
f 1/1/1 3/7/1 4/9/1 2/4/1
f 3/7/2 7/13/2 8/14/2 4/9/2
f 7/13/3 5/11/3 6/12/3 8/14/3
f 5/11/4 1/2/4 2/5/4 6/12/4
f 3/8/5 1/3/5 5/11/5 7/13/5
f 8/14/6 6/12/6 2/6/6 4/10/6
