# Blender 3.4.0
# www.blender.org
mtllib windows.mtl
o Castle_OBJ.001
v 0.174808 0.394136 1.779884
v 0.241175 0.394136 1.736010
v 0.174808 0.523160 1.779884
v 0.241175 0.523160 1.736010
v 0.205369 0.523160 1.759680
v 0.205369 0.394136 1.759680
v 0.208759 0.523160 1.757440
v 0.208759 0.394136 1.757440
v 0.174808 0.460084 1.779884
v 0.205369 0.460084 1.759680
v 0.208759 0.460084 1.757440
v 0.241175 0.460084 1.736010
v 0.174808 0.455858 1.779884
v 0.205369 0.455858 1.759680
v 0.208759 0.455858 1.757440
v 0.241175 0.455858 1.736010
v 1.152901 0.394136 1.133275
v 1.219268 0.394136 1.089401
v 1.152901 0.523160 1.133275
v 1.219268 0.523160 1.089401
v 1.183463 0.523160 1.113071
v 1.183463 0.394136 1.113071
v 1.186852 0.523160 1.110831
v 1.186852 0.394136 1.110831
v 1.152901 0.460084 1.133275
v 1.183463 0.460084 1.113071
v 1.186852 0.460084 1.110831
v 1.219268 0.460084 1.089401
v 1.152901 0.455858 1.133275
v 1.183463 0.455858 1.113071
v 1.186852 0.455858 1.110831
v 1.219268 0.455858 1.089401
v 1.417508 0.551252 1.557352
v 1.505377 0.551252 1.499262
v 1.417508 0.736917 1.557352
v 1.505377 0.736917 1.499262
v 1.457971 0.736917 1.530602
v 1.457971 0.551252 1.530602
v 1.462458 0.736917 1.527636
v 1.462458 0.551252 1.527636
v 1.417508 0.646152 1.557352
v 1.457971 0.646152 1.530602
v 1.462458 0.646152 1.527636
v 1.505377 0.646152 1.499262
v 1.417508 0.640070 1.557352
v 1.457971 0.640070 1.530602
v 1.462458 0.640070 1.527636
v 1.505377 0.640070 1.499262
v 0.439359 0.551252 2.203998
v 0.527228 0.551252 2.145908
v 0.439359 0.736917 2.203998
v 0.527228 0.736917 2.145908
v 0.479822 0.736917 2.177248
v 0.479822 0.551252 2.177248
v 0.484309 0.736917 2.174281
v 0.484309 0.551252 2.174281
v 0.439359 0.646152 2.203998
v 0.479822 0.646152 2.177248
v 0.484309 0.646152 2.174281
v 0.527228 0.646152 2.145908
v 0.439359 0.640070 2.203998
v 0.479822 0.640070 2.177248
v 0.484309 0.640070 2.174281
v 0.527228 0.640070 2.145908
v 0.487403 0.083151 1.715463
v 0.564185 0.083151 1.664703
v 0.487403 0.193307 1.715463
v 0.564185 0.193307 1.664703
v 0.576223 0.400782 1.774982
v 0.576223 0.318928 1.774982
v 0.638009 0.318928 1.734136
v 0.638009 0.400782 1.734136
v 1.003884 0.400782 1.492259
v 1.003884 0.318928 1.492259
v 1.065811 0.318928 1.451320
v 1.065811 0.400782 1.451320
v 0.982587 0.083151 1.388101
v 1.059370 0.083151 1.337341
v 0.982587 0.193307 1.388101
v 1.059370 0.193307 1.337341
vn -0.5515 -0.0000 -0.8342
vt 0.841753 0.862958
vt 0.915450 0.862958
vt 0.841753 0.982477
vt 0.915450 0.982477
vt 0.875690 0.982477
vt 0.875690 0.862958
vt 0.879454 0.982477
vt 0.879454 0.862958
vt 0.841753 0.924048
vt 0.875690 0.924048
vt 0.879454 0.924048
vt 0.915450 0.924048
vt 0.841753 0.920133
vt 0.875690 0.920133
vt 0.879454 0.920133
vt 0.915450 0.920133
vt 0.688632 0.862979
vt 0.761142 0.862979
vt 0.688632 0.980572
vt 0.761142 0.980572
vt 0.722023 0.980572
vt 0.722023 0.862979
vt 0.725726 0.980572
vt 0.725726 0.862979
vt 0.688632 0.923085
vt 0.722023 0.923085
vt 0.725726 0.923085
vt 0.761142 0.923085
vt 0.688632 0.919233
vt 0.722023 0.919233
vt 0.725726 0.919233
vt 0.761142 0.919233
vt 0.767742 0.863095
vt 0.834536 0.863095
vt 0.767742 0.980826
vt 0.834536 0.980826
vt 0.798500 0.980826
vt 0.798500 0.863095
vt 0.801911 0.980826
vt 0.801911 0.863095
vt 0.767742 0.923271
vt 0.798500 0.923271
vt 0.801911 0.923271
vt 0.834536 0.923271
vt 0.767742 0.919415
vt 0.798500 0.919415
vt 0.801911 0.919415
vt 0.834536 0.919415
vt 0.767768 0.863075
vt 0.834562 0.863075
vt 0.767768 0.980807
vt 0.834562 0.980807
vt 0.798526 0.980807
vt 0.798526 0.863075
vt 0.801938 0.980807
vt 0.801938 0.863075
vt 0.767768 0.923251
vt 0.798526 0.923251
vt 0.801938 0.923251
vt 0.834562 0.923251
vt 0.767768 0.919395
vt 0.798526 0.919395
vt 0.801938 0.919395
vt 0.834562 0.919395
vt 0.603162 0.677834
vt 0.712560 0.677834
vt 0.603162 0.808758
vt 0.712560 0.808758
vt 0.446436 0.445006
vt 0.446436 0.322464
vt 0.557318 0.322464
vt 0.557318 0.445006
vt 0.446257 0.445021
vt 0.446257 0.322479
vt 0.557392 0.322479
vt 0.557392 0.445021
vt 0.603175 0.677780
vt 0.712573 0.677780
vt 0.603175 0.808704
vt 0.712573 0.808704
s 0
usemtl Material.002
f 65/65/1 67/67/1 68/68/1 66/66/1
f 69/69/1 72/72/1 71/71/1 70/70/1
f 73/73/1 76/76/1 75/75/1 74/74/1
f 77/77/1 79/79/1 80/80/1 78/78/1
usemtl Material.015
f 11/11/1 7/7/1 4/4/1 12/12/1
f 9/9/1 3/3/1 5/5/1 10/10/1
f 1/1/1 13/13/1 14/14/1 6/6/1
f 8/8/1 15/15/1 16/16/1 2/2/1
f 27/27/1 23/23/1 20/20/1 28/28/1
f 25/25/1 19/19/1 21/21/1 26/26/1
f 17/17/1 29/29/1 30/30/1 22/22/1
f 24/24/1 31/31/1 32/32/1 18/18/1
f 43/43/1 39/39/1 36/36/1 44/44/1
f 41/41/1 35/35/1 37/37/1 42/42/1
f 33/33/1 45/45/1 46/46/1 38/38/1
f 40/40/1 47/47/1 48/48/1 34/34/1
f 59/59/1 55/55/1 52/52/1 60/60/1
f 57/57/1 51/51/1 53/53/1 58/58/1
f 49/49/1 61/61/1 62/62/1 54/54/1
f 56/56/1 63/63/1 64/64/1 50/50/1
